<?xml version="1.0" standalone="no"?>
<!DOCTYPE svg PUBLIC "-//W3C//DTD SVG 20010904//EN"
 "http://www.w3.org/TR/2001/REC-SVG-20010904/DTD/svg10.dtd">
<svg version="1.0" xmlns="http://www.w3.org/2000/svg"
 width="1000.000000pt" height="1000.000000pt" viewBox="0 0 1000.000000 1000.000000"
 preserveAspectRatio="xMidYMid meet">
<metadata>
Created by potrace 1.14, written by Peter Selinger 2001-2017
</metadata>
<g transform="translate(0.000000,1000.000000) scale(0.100000,-0.100000)"
fill="#000000" stroke="none">
<path d="M8653 5750 c-153 -69 -329 -364 -413 -690 -30 -117 -30 -117 -127
-119 l-53 -1 22 58 c29 74 30 173 3 219 -45 77 -139 78 -255 5 -65 -41 -175
-149 -250 -245 -29 -37 -54 -66 -56 -64 -3 2 9 33 25 69 78 175 103 304 65
333 -40 30 -86 12 -124 -49 -11 -19 -41 -90 -66 -158 -141 -379 -220 -649
-230 -780 -6 -69 -4 -78 11 -85 25 -9 63 38 117 142 22 44 52 93 65 108 14 18
23 42 23 62 0 43 32 125 71 183 16 23 29 46 29 49 0 3 17 29 38 57 21 28 58
78 82 111 97 132 266 275 326 275 61 0 51 -85 -24 -194 l-47 -68 -75 0 c-127
0 -202 -47 -195 -124 5 -66 82 -124 161 -124 75 0 193 78 250 165 13 20 23 23
100 24 l85 2 -6 -40 c-5 -32 -2 -44 15 -61 12 -12 27 -20 33 -17 7 2 39 39 72
83 66 88 195 219 244 247 l31 18 -44 -73 c-45 -73 -99 -196 -111 -253 -14 -62
-17 -162 -5 -204 6 -24 25 -57 41 -73 24 -25 34 -28 65 -24 59 10 120 64 193
170 18 26 35 46 37 44 2 -2 -4 -26 -12 -53 -39 -128 -76 -287 -81 -352 -5 -64
-3 -73 12 -80 14 -5 26 3 47 28 35 42 126 224 167 338 86 232 382 582 524 616
51 13 72 -30 45 -92 -19 -45 -100 -163 -112 -164 -6 0 -34 0 -62 1 -121 3
-209 -52 -199 -125 13 -107 147 -156 263 -96 41 21 120 94 149 137 12 18 24
22 85 23 39 1 83 4 97 7 43 11 91 44 91 65 0 24 -11 24 -42 -1 -29 -22 -95
-39 -155 -40 l-41 0 23 69 c38 112 20 219 -43 253 -99 53 -274 -50 -443 -263
-40 -49 -73 -88 -75 -86 -2 2 14 45 36 95 41 94 64 170 73 234 7 45 -22 88
-57 88 -60 0 -99 -66 -186 -315 -47 -133 -64 -172 -92 -210 -137 -185 -212
-255 -258 -240 -37 12 -22 53 118 321 97 186 120 266 88 309 -39 53 -191 -27
-326 -171 -71 -77 -71 -78 8 96 57 124 57 125 122 168 169 112 264 245 265
370 0 58 -3 66 -28 88 -34 29 -68 30 -124 4z m114 -87 c9 -22 -23 -108 -58
-160 -36 -52 -137 -152 -179 -176 l-31 -18 52 98 c72 136 125 218 160 248 36
29 47 31 56 8z m-956 -767 c-65 -55 -109 -78 -131 -71 -21 7 -25 21 -13 50 9
26 82 55 136 55 l49 0 -41 -34z m1483 -7 c-27 -22 -62 -47 -77 -55 -33 -17
-67 -10 -67 14 1 44 66 81 144 82 l48 0 -48 -41z"/>
<path d="M6578 5726 c-134 -48 -288 -312 -392 -675 -20 -68 -44 -133 -53 -145
-94 -110 -178 -153 -214 -109 -27 32 -14 207 19 269 12 22 77 83 90 85 4 0 15
2 24 4 25 5 32 -29 14 -64 -20 -38 -20 -51 -1 -51 17 0 55 69 55 99 0 119
-160 119 -279 0 -44 -44 -101 -147 -101 -182 0 -24 -111 -134 -183 -182 -66
-44 -120 -52 -125 -19 -3 22 64 202 117 313 47 101 29 170 -41 157 -68 -13
-157 -131 -176 -236 -19 -101 7 -226 56 -275 55 -56 160 -16 283 109 31 31 59
56 62 56 3 0 8 -16 11 -35 9 -46 58 -101 103 -116 70 -23 166 7 243 78 22 19
40 33 40 31 0 -3 -5 -30 -10 -59 -12 -64 -15 -158 -5 -188 17 -53 74 -5 130
111 51 104 72 135 105 148 37 15 60 10 158 -39 181 -88 284 -80 388 31 48 50
98 134 89 148 -11 18 -23 10 -49 -34 -41 -70 -75 -105 -129 -133 -66 -33 -125
-28 -227 20 l-74 35 53 18 c103 37 191 155 191 257 0 92 -62 111 -153 48 -58
-39 -175 -165 -245 -263 -30 -43 -57 -76 -59 -75 -1 2 11 44 28 94 25 76 42
105 104 183 172 216 265 394 267 512 1 66 -47 97 -114 74z m72 -99 c0 -26 -34
-114 -76 -195 -42 -81 -148 -247 -166 -258 -23 -14 136 327 193 414 34 52 49
64 49 39z m-37 -506 c-64 -99 -145 -179 -200 -195 -18 -6 -20 -4 -16 14 9 34
218 240 243 240 6 0 -6 -26 -27 -59z"/>
<path d="M897 5587 c-8 -7 -19 -28 -25 -47 -6 -19 -22 -73 -36 -120 -76 -253
-118 -397 -121 -410 -2 -8 -40 -136 -84 -283 -44 -148 -77 -275 -74 -283 7
-19 93 -44 114 -33 9 5 25 40 37 81 11 40 57 197 102 348 45 151 83 280 84
285 2 6 9 30 16 55 7 25 15 50 16 55 4 14 60 201 76 255 11 36 14 80 5 80 -1
0 -23 7 -49 14 -36 11 -50 12 -61 3z"/>
<path d="M2938 5529 c-10 -5 -18 -16 -18 -24 0 -7 -15 -25 -32 -40 -44 -36
-127 -117 -277 -269 -69 -69 -128 -126 -132 -126 -4 0 1 25 12 55 34 99 16
174 -39 160 -34 -8 -136 -81 -182 -129 -19 -20 -43 -42 -53 -47 -17 -9 -17 -8
-7 11 29 55 4 140 -42 140 -91 0 -169 -150 -204 -390 -3 -19 -7 -47 -10 -61
-3 -17 2 -31 17 -45 21 -19 21 -19 41 6 11 14 38 55 61 92 23 37 67 95 97 130
59 68 208 209 228 216 7 2 -1 -17 -17 -43 -36 -57 -45 -92 -36 -146 8 -48 40
-73 80 -63 33 8 132 104 300 292 70 78 132 142 137 142 6 0 3 -11 -5 -24 -62
-94 -145 -287 -163 -378 -22 -117 -25 -243 -5 -301 14 -40 41 -64 81 -70 59
-10 165 76 263 210 43 59 45 61 61 44 24 -26 84 -39 124 -27 19 5 56 29 83 53
l49 45 -16 -44 c-26 -72 -29 -161 -9 -229 34 -111 111 -170 185 -139 41 17
132 117 215 238 38 55 72 99 74 96 3 -2 6 -12 7 -21 10 -64 64 -113 125 -113
80 1 189 87 245 194 l28 53 35 -14 c19 -8 57 -16 83 -16 39 -1 48 -5 48 -20 0
-44 25 -110 52 -137 39 -39 87 -52 152 -39 143 27 285 154 386 345 l35 67 63
1 c34 0 61 -1 59 -4 -9 -18 -82 -169 -88 -185 -29 -69 -37 -200 -17 -267 15
-50 78 -108 117 -108 46 0 83 17 79 38 -3 13 -12 16 -35 14 -27 -3 -33 1 -39
22 -13 55 36 200 148 433 32 68 58 128 58 135 -2 51 -82 71 -120 30 -27 -28
-84 -44 -145 -40 l-50 3 3 76 c5 96 -11 154 -53 196 -56 56 -115 41 -156 -40
-24 -47 -22 -120 5 -171 21 -40 74 -96 103 -107 12 -5 23 -14 23 -21 0 -27
-77 -142 -137 -208 -140 -151 -261 -181 -279 -69 -6 32 -3 37 35 62 106 70
162 227 101 282 -40 36 -135 27 -191 -17 -37 -30 -79 -104 -96 -169 -16 -64
-19 -69 -45 -69 -38 0 -108 29 -108 45 0 8 5 26 11 42 25 66 17 176 -16 203
-21 18 -61 -8 -81 -52 -24 -53 -21 -121 7 -175 20 -39 21 -46 8 -70 -40 -75
-171 -185 -200 -167 -19 12 -3 105 38 214 51 134 55 153 43 184 -17 47 -79 46
-127 -2 -32 -32 -90 -155 -99 -209 -11 -69 -290 -424 -333 -423 -19 1 -34 22
-38 57 -5 46 53 254 97 348 51 110 63 183 34 223 -18 26 -50 28 -83 6 -22 -16
-24 -15 -48 10 -33 36 -67 48 -116 41 -123 -19 -255 -157 -262 -275 -3 -57
-26 -96 -122 -207 -81 -94 -153 -131 -188 -97 -38 38 0 174 97 341 76 132 155
293 173 355 18 65 13 113 -17 145 -23 25 -43 28 -70 12z m2038 -94 c21 -52 16
-175 -7 -175 -18 0 -67 56 -83 94 -19 46 -21 86 -3 108 29 38 71 25 93 -27z
m-760 -293 c-4 -30 -11 -62 -16 -71 -7 -13 -11 -11 -20 14 -14 36 -6 125 12
136 21 13 31 -20 24 -79z m424 -11 c0 -11 -4 -31 -10 -45 -10 -28 -77 -106
-91 -106 -15 0 36 124 65 156 17 20 36 17 36 -5z m-1225 -1 c11 -17 -25 -70
-102 -150 -76 -80 -107 -100 -125 -82 -11 11 27 96 69 150 50 67 139 113 158
82z"/>
<path d="M208 5222 c-115 -115 -208 -215 -208 -222 0 -20 411 -430 432 -430
23 0 118 94 118 117 0 10 -64 82 -145 163 -80 80 -145 147 -145 150 0 3 65 71
145 150 79 80 145 152 145 162 0 22 -94 118 -117 118 -10 0 -106 -89 -225
-208z"/>
<path d="M1068 5380 c-27 -27 -48 -57 -48 -67 0 -11 61 -80 145 -163 80 -79
145 -146 145 -149 0 -4 -65 -71 -145 -151 -83 -83 -145 -153 -145 -163 0 -24
92 -117 116 -117 19 0 434 411 434 430 0 20 -416 430 -436 430 -11 -1 -40 -23
-66 -50z"/>
<path d="M5510 5380 c-39 -39 -14 -110 39 -110 30 0 71 36 71 62 0 27 -40 68
-66 68 -13 0 -33 -9 -44 -20z"/>
<path d="M7055 4608 c-53 -41 -19 -138 49 -138 36 0 76 41 76 78 0 64 -75 100
-125 60z"/>
</g>
</svg>
