<?xml version="1.0" standalone="no"?>
<!DOCTYPE svg PUBLIC "-//W3C//DTD SVG 20010904//EN"
 "http://www.w3.org/TR/2001/REC-SVG-20010904/DTD/svg10.dtd">
<svg version="1.0" xmlns="http://www.w3.org/2000/svg"
 width="1000.000000pt" height="1000.000000pt" viewBox="0 0 1000.000000 1000.000000"
 preserveAspectRatio="xMidYMid meet">
<metadata>
Created by potrace 1.14, written by Peter Selinger 2001-2017
</metadata>
<g transform="translate(0.000000,1000.000000) scale(0.100000,-0.100000)"
fill="#000000" stroke="none">
<path d="M4779 7958 c-1 -16 -2 -20 -33 -142 -15 -55 -28 -109 -31 -120 -2
-12 -52 -210 -110 -441 -58 -231 -108 -427 -110 -435 -1 -8 -19 -80 -39 -160
-21 -80 -39 -152 -40 -160 -2 -8 -50 -197 -106 -420 -56 -223 -103 -412 -105
-420 -2 -8 -56 -222 -120 -475 -64 -253 -118 -470 -121 -483 -2 -12 -15 -63
-28 -112 -14 -50 -22 -90 -20 -90 3 0 0 -8 -5 -19 -6 -10 -13 -31 -15 -47 -3
-16 -53 -218 -112 -449 -58 -231 -107 -428 -109 -438 -2 -10 -7 -27 -10 -37
-3 -10 -8 -28 -10 -39 -10 -42 -13 -57 -30 -121 -9 -36 -18 -72 -20 -80 -4
-21 -175 -701 -181 -722 -5 -17 25 -18 530 -18 422 0 536 3 537 13 1 17 4 31
29 127 12 47 23 92 25 101 2 9 15 65 30 125 14 60 28 116 30 124 3 17 27 114
86 360 38 157 49 204 50 215 0 2 7 28 15 57 8 29 17 64 20 78 3 14 10 43 16
65 5 22 12 47 13 55 5 21 61 257 86 355 10 44 21 89 23 100 3 11 23 97 46 190
23 94 50 206 60 250 23 96 108 475 115 513 2 15 16 79 30 142 15 63 29 126 31
140 3 14 28 133 55 265 28 132 53 251 55 265 3 13 12 56 20 95 9 38 17 79 20
90 2 11 6 31 9 45 3 14 7 34 9 45 3 11 12 56 21 100 9 44 19 89 21 99 2 11 13
65 25 120 11 56 22 110 25 121 2 11 9 42 15 70 18 74 26 36 34 -165 4 -96 8
-202 10 -235 2 -33 6 -118 10 -189 3 -70 8 -158 10 -195 2 -36 6 -120 10 -186
3 -66 8 -145 10 -175 2 -30 7 -102 10 -160 3 -58 7 -130 10 -160 2 -30 7 -95
10 -145 16 -239 25 -360 30 -405 2 -19 7 -71 10 -115 8 -105 12 -150 19 -221
3 -32 8 -93 11 -133 3 -41 8 -93 10 -115 3 -23 7 -70 10 -106 3 -36 7 -83 10
-105 2 -22 7 -74 10 -115 3 -41 10 -120 15 -175 5 -55 12 -134 15 -175 7 -88
13 -158 20 -220 3 -25 7 -79 11 -120 3 -41 7 -91 9 -110 1 -19 6 -69 9 -110 4
-41 9 -95 11 -120 2 -25 7 -79 10 -121 4 -41 8 -84 10 -95 2 -10 4 -29 4 -41
l1 -23 453 0 453 0 90 183 c50 100 123 247 163 327 39 80 76 153 82 163 24 44
829 1658 829 1663 0 3 9 18 19 32 10 15 19 30 20 35 0 4 24 55 52 115 28 59
76 159 106 222 80 168 143 301 143 305 0 1 23 52 51 111 28 60 57 123 64 139
8 17 24 55 38 85 13 30 34 75 45 100 50 110 82 184 209 475 74 171 138 314
143 318 18 19 17 -14 -6 -128 -13 -66 -26 -133 -29 -150 -3 -16 -17 -88 -30
-160 -35 -187 -35 -187 -40 -225 -3 -19 -8 -45 -11 -58 -7 -35 -90 -515 -101
-587 -2 -16 -8 -55 -13 -85 -5 -30 -12 -68 -14 -85 -3 -16 -14 -88 -26 -160
-12 -71 -24 -143 -26 -160 -3 -29 -21 -145 -30 -195 -2 -14 -7 -44 -10 -66 -2
-23 -7 -53 -9 -65 -3 -13 -7 -44 -10 -69 -4 -25 -10 -67 -15 -95 -6 -27 -12
-70 -14 -95 -3 -25 -7 -58 -10 -75 -3 -16 -12 -77 -21 -135 -9 -58 -18 -116
-20 -130 -2 -14 -9 -61 -15 -105 -10 -76 -13 -100 -25 -170 -3 -16 -7 -50 -11
-75 -3 -25 -9 -70 -14 -100 -9 -52 -14 -84 -25 -175 -3 -22 -7 -51 -10 -64 -4
-20 -22 -146 -30 -201 -1 -8 -5 -33 -8 -55 -4 -22 -9 -60 -12 -85 -3 -25 -11
-74 -16 -110 -6 -36 -13 -81 -15 -100 -6 -44 -9 -60 -29 -190 -9 -58 -19 -123
-22 -145 -3 -22 -6 -44 -7 -50 0 -7 195 -11 567 -13 l567 -2 1 22 c1 32 5 61
19 158 14 99 17 119 24 182 3 26 10 76 15 110 6 35 13 86 16 113 3 28 7 61 10
75 2 14 7 48 10 75 3 28 10 77 15 110 5 33 11 83 15 110 7 54 7 56 30 225 16
117 20 146 30 235 4 28 8 57 10 65 2 8 7 40 10 70 3 30 10 82 15 115 9 60 15
106 25 188 3 23 8 53 10 67 4 26 15 106 20 150 1 14 5 43 9 65 3 22 15 110 26
195 12 85 23 166 25 180 4 26 7 45 25 190 6 47 13 99 15 115 3 17 14 100 25
185 12 85 23 166 25 180 2 14 6 43 9 65 4 22 8 60 11 85 3 25 7 56 10 70 4 25
11 69 20 145 5 40 32 244 40 300 2 17 7 53 10 80 3 28 8 61 10 75 2 14 7 45
10 70 3 25 8 56 10 70 3 14 14 97 26 185 11 88 22 176 25 195 3 19 7 53 9 75
3 22 7 51 10 65 5 27 12 79 20 150 3 25 7 56 10 70 2 14 7 49 10 79 4 30 8 61
10 70 1 9 6 41 10 71 8 67 12 93 19 145 4 22 8 57 11 79 2 21 7 56 10 77 l6
39 -788 0 -789 0 -101 -207 c-284 -585 -446 -916 -641 -1313 -239 -489 -324
-666 -459 -959 -105 -226 -224 -502 -319 -736 -25 -60 -49 -119 -54 -130 -13
-29 -94 -245 -134 -355 -43 -122 -66 -133 -67 -33 -1 114 -17 491 -24 593 -2
25 -6 97 -10 160 -3 63 -8 140 -10 170 -8 104 -15 195 -20 275 -3 44 -7 105
-10 135 -3 30 -7 98 -10 150 -6 113 -14 221 -40 520 -3 25 -7 81 -10 125 -3
44 -8 98 -10 120 -2 22 -7 76 -10 120 -4 44 -8 100 -11 125 -2 25 -6 83 -9
130 -3 47 -8 101 -10 120 -2 20 -7 74 -11 120 -3 47 -7 99 -9 115 -1 17 -6 73
-9 125 -4 52 -9 105 -11 118 -2 12 -7 73 -11 135 -3 61 -8 120 -9 129 -2 9 -6
59 -10 110 -3 51 -8 103 -11 116 l-4 22 -780 0 c-617 0 -780 -3 -781 -12z"/>
<path d="M2155 6188 c-10 -44 -74 -325 -79 -349 -3 -13 -7 -33 -10 -44 -3 -11
-21 -90 -40 -175 -20 -85 -47 -204 -61 -265 -15 -60 -28 -119 -31 -131 -2 -12
-49 -219 -105 -460 -55 -241 -103 -450 -105 -464 -4 -20 -37 -161 -49 -210 -2
-8 -11 -49 -20 -90 -9 -41 -21 -93 -27 -115 -24 -93 -36 -85 117 -85 131 0
135 1 140 23 6 27 52 224 66 287 6 25 13 54 15 65 2 11 6 29 9 40 55 239 105
454 120 528 2 10 6 26 9 35 3 9 7 28 10 42 3 14 41 182 85 373 45 191 83 362
86 379 3 17 8 34 10 38 2 3 6 17 9 31 2 13 32 143 65 289 34 146 61 268 61
272 0 5 -61 8 -135 8 -131 0 -135 -1 -140 -22z"/>
<path d="M2684 5887 l1 -272 160 -88 c160 -88 209 -115 360 -197 44 -24 97
-54 117 -67 21 -13 40 -23 43 -23 3 0 17 -7 31 -16 24 -16 22 -18 -338 -216
-200 -110 -366 -203 -371 -207 -4 -4 -6 -127 -5 -273 l3 -265 80 44 c44 24
111 61 150 82 67 36 670 365 805 439 36 20 112 62 170 93 l105 57 2 220 c2
159 -1 223 -10 234 -7 8 -273 158 -592 333 -319 175 -595 327 -612 337 -18 10
-48 27 -67 37 l-34 19 2 -271z"/>
<path d="M1378 6137 c-16 -6 -28 -14 -28 -19 0 -4 -4 -8 -9 -8 -5 0 -94 -47
-197 -103 -104 -57 -220 -121 -259 -142 -115 -63 -162 -88 -350 -192 -99 -55
-237 -130 -307 -168 l-128 -69 0 -227 0 -227 73 -40 c39 -22 108 -59 152 -82
44 -24 85 -46 90 -50 11 -8 71 -41 200 -110 44 -23 94 -50 110 -60 17 -10 57
-32 90 -50 33 -18 83 -45 110 -60 28 -15 79 -43 115 -62 36 -20 131 -72 212
-117 80 -44 151 -81 157 -81 12 0 15 508 3 526 -4 6 -45 31 -92 56 -47 25
-105 57 -130 71 -139 77 -325 179 -395 217 -122 66 -120 64 -91 84 14 9 28 16
31 16 3 0 45 22 93 49 48 27 121 67 162 90 41 22 155 85 252 138 l177 97 0
268 c0 147 -3 268 -7 267 -4 -1 -19 -6 -34 -12z"/>
</g>
</svg>
